<svg width="30" height="30" viewBox="0 0 30 30" fill="none" xmlns="http://www.w3.org/2000/svg">
<path fill-rule="evenodd" clip-rule="evenodd" d="M13.2475 22.7757H16.7525C17.0754 22.7757 17.3367 22.5269 17.3367 22.2195C17.3367 21.9121 17.0754 21.6634 16.7525 21.6634H13.2475C12.9246 21.6634 12.6633 21.9122 12.6633 22.2196C12.6633 22.527 12.9246 22.7757 13.2475 22.7757Z" fill="#424242"/>
<path fill-rule="evenodd" clip-rule="evenodd" d="M22.5833 15C22.2612 15 22 14.7513 22 14.4444C22 14.1376 22.2612 13.8889 22.5833 13.8889C22.9055 13.8889 23.1667 14.1376 23.1667 14.4444C23.1667 14.7513 22.9055 15 22.5833 15ZM15 23.8889C12.138 23.8889 9.48909 22.6595 7.72427 20.5556H22.2757C20.5109 22.6595 17.862 23.8889 15 23.8889ZM6.83335 14.4444C6.83335 14.1376 7.09454 13.8889 7.4167 13.8889C7.73886 13.8889 8 14.1376 8 14.4444C8 14.7513 7.73881 15 7.41665 15C7.09449 15 6.83335 14.7513 6.83335 14.4444ZM9.16665 17.7778C9.16665 18.0846 8.90546 18.3333 8.5833 18.3333C8.26114 18.3333 8 18.0846 8 17.7778C8 17.4709 8.26119 17.2222 8.58335 17.2222C8.90551 17.2222 9.16665 17.4709 9.16665 17.7778ZM8.58335 10.5556C8.90552 10.5556 9.1667 10.8043 9.1667 11.1111C9.1667 11.418 8.90551 11.6667 8.58335 11.6667C8.26119 11.6667 8 11.4179 8 11.1111C8 10.8042 8.26119 10.5556 8.58335 10.5556ZM10.9166 8.33333C11.2388 8.33333 11.5 8.58203 11.5 8.8889C11.5 9.19572 11.2388 9.44447 10.9166 9.44447C10.5945 9.44447 10.3333 9.19572 10.3333 8.8889C10.3334 8.58203 10.5945 8.33333 10.9166 8.33333ZM13.6875 13.1651C13.8128 13.0827 13.9006 12.9579 13.9302 12.8147L14.4281 10.4471C14.4828 10.1878 14.7232 10.0001 15 10.0001C15.2768 10.0001 15.5172 10.1878 15.5719 10.4471L16.0698 12.8147C16.0994 12.9579 16.1872 13.0827 16.3125 13.1651C16.9517 13.5807 17.3333 14.2665 17.3333 15C17.3333 16.225 16.2863 17.2222 15 17.2222C13.7137 17.2222 12.6666 16.225 12.6666 15C12.6666 14.2665 13.0484 13.5807 13.6875 13.1651H13.6875ZM15 7.22224C15.3222 7.22224 15.5834 7.47093 15.5834 7.77781C15.5834 8.08463 15.3222 8.33338 15 8.33338C14.6778 8.33338 14.4166 8.08462 14.4166 7.77781C14.4166 7.47088 14.6778 7.22224 15 7.22224ZM19.0833 8.33333C19.4055 8.33333 19.6667 8.58203 19.6667 8.8889C19.6667 9.19572 19.4055 9.44447 19.0833 9.44447C18.7612 9.44447 18.5 9.19568 18.5 8.88891C18.5 8.58203 18.7612 8.33332 19.0833 8.33332V8.33333ZM21.4167 17.2222C21.7388 17.2222 22 17.4709 22 17.7778C22 18.0846 21.7388 18.3334 21.4167 18.3334C21.0945 18.3334 20.8333 18.0846 20.8333 17.7778C20.8333 17.4709 21.0945 17.2222 21.4167 17.2222ZM21.4167 10.5556C21.7388 10.5556 22 10.8043 22 11.1111C22 11.418 21.7388 11.6667 21.4167 11.6667C21.0945 11.6667 20.8333 11.418 20.8333 11.1111C20.8333 10.8042 21.0945 10.5556 21.4167 10.5556ZM24.1639 10.1322C22.3659 7.07427 18.9346 5 15 5C11.0674 5 7.63775 7.07219 5.83897 10.1277C2.89728 11.3815 1 14.143 1 17.2222C1 21.5104 4.66406 25 9.16665 25C10.1119 25 11.0344 24.8424 11.9133 24.5427C12.8997 24.8315 13.9332 25 15 25C16.0672 25 17.101 24.8314 18.0878 24.5424C18.968 24.8426 19.8898 25 20.8333 25C25.3359 25 29 21.5104 29 17.2222C29 14.1404 27.1046 11.3858 24.1639 10.1322H24.1639Z" fill="#424242"/>
</svg>
