<svg width="30" height="30" viewBox="0 0 30 30" fill="none" xmlns="http://www.w3.org/2000/svg">
<path fill-rule="evenodd" clip-rule="evenodd" d="M28.993 1.6726C29.0238 1.47208 28.948 1.26985 28.7931 1.13887C28.6382 1.0073 28.4245 0.96683 28.2331 1.03004C28.1984 1.04141 24.6933 2.16706 16.75 2.16706C9.87362 2.16706 1.74691 1.01812 1.66602 1.00614C1.45979 0.9765 1.2644 1.05569 1.13512 1.21067C1.00524 1.36669 0.96592 1.57805 1.03083 1.76999C1.0422 1.80362 2.16674 5.19129 2.16674 9.7501C2.16674 10.0201 2.35246 10.2548 2.61506 10.3175C3.75496 10.5886 5.66671 11.406 5.66671 13.8333C5.66671 16.0436 4.72336 17.156 2.69879 17.3355C2.39746 17.3623 2.16674 17.6141 2.16674 17.9165C2.16674 24.1638 1.03368 28.2162 1.0223 28.2561C0.96707 28.4498 1.01601 28.6589 1.15163 28.8081C1.2872 28.9568 1.49058 29.0268 1.68767 28.9898C1.75149 28.9785 8.09235 27.8329 11.5 27.8329C16.6605 27.8329 28.2422 28.9847 28.3584 28.9967C28.3778 28.9984 28.3972 28.9995 28.4166 28.9995C28.5772 28.9995 28.7316 28.9334 28.8421 28.8149C28.9663 28.6822 29.0221 28.4994 28.9919 28.3205C28.9805 28.251 27.8332 21.2888 27.8332 14.4166C27.8332 9.27276 28.9816 1.74778 28.993 1.67259L28.993 1.6726Z" fill="#303C42"/>
<path fill-rule="evenodd" clip-rule="evenodd" d="M11.5002 26.6693C8.72958 26.6693 4.25848 27.3717 2.36548 27.6914C2.69696 26.2033 3.29091 22.9298 3.33361 18.4314C5.62752 18.0377 6.83489 16.4585 6.83489 13.835C6.83489 11.6537 5.53528 9.98842 3.33246 9.30532C3.28462 6.11562 2.73277 3.55819 2.3962 2.28093C4.71461 2.57944 11.1368 3.33428 16.7487 3.33428C22.7039 3.33428 26.1966 2.72354 27.708 2.37434C27.4039 4.5358 26.6624 10.2362 26.6624 14.4184C26.6624 20.0619 27.425 25.764 27.7212 27.7659C25.0536 27.5102 15.9463 26.6693 11.5002 26.6693L11.5002 26.6693Z" fill="#FFE082"/>
<path opacity="0.15" fill-rule="evenodd" clip-rule="evenodd" d="M11.5002 26.6693C8.72958 26.6693 4.25848 27.3717 2.36548 27.6914C2.69696 26.2033 3.29091 22.9298 3.33361 18.4314C5.62752 18.0377 6.83489 16.4585 6.83489 13.835C6.83489 11.6537 5.53528 9.98842 3.33246 9.30532C3.28462 6.11562 2.73277 3.55819 2.3962 2.28093C4.71461 2.57944 11.1368 3.33428 16.7487 3.33428C22.7039 3.33428 26.1966 2.72354 27.708 2.37434C27.4039 4.5358 26.6624 10.2362 26.6624 14.4184C26.6624 20.0619 27.425 25.764 27.7212 27.7659C25.0536 27.5102 15.9463 26.6693 11.5002 26.6693L11.5002 26.6693Z" fill="#8D6E63"/>
<path opacity="0.2" fill-rule="evenodd" clip-rule="evenodd" d="M11.9204 26.6626C11.8874 26.6626 11.848 26.6656 11.8143 26.6659C12.7461 26.6732 13.85 26.7126 15.0474 26.7737C13.8753 26.7059 12.7933 26.6626 11.9204 26.6626Z" fill="white"/>
<path opacity="0.1" fill-rule="evenodd" clip-rule="evenodd" d="M26.176 2.67776C25.8895 5.02486 25.29 10.4146 25.29 14.4201C25.29 19.9429 25.9336 25.5125 26.206 27.6239C26.8169 27.68 27.3402 27.7293 27.721 27.7658C27.4247 25.7642 26.6618 20.0627 26.6618 14.4201C26.6618 10.2384 27.4037 4.53876 27.7079 2.37759C27.3266 2.46569 26.8174 2.57035 26.176 2.67775V2.67776Z" fill="black"/>
<path opacity="0.2" fill-rule="evenodd" clip-rule="evenodd" d="M15.049 3.31107C15.5531 3.32725 16.0554 3.33822 16.5496 3.33822C16.575 3.33822 16.5964 3.33695 16.6216 3.33695C16.1028 3.33573 15.5771 3.32598 15.049 3.31108V3.31107Z" fill="white"/>
<path opacity="0.2" fill-rule="evenodd" clip-rule="evenodd" d="M3.3338 18.4285C3.29109 22.926 2.69697 26.1989 2.36548 27.6868C2.77019 27.6185 3.30952 27.531 3.90807 27.4383C4.20615 25.8592 4.68008 22.708 4.7159 18.4285C6.73954 18.0349 7.8046 16.456 7.8046 13.8329C7.8046 11.652 6.65812 9.98703 4.71486 9.30405C4.6745 6.25424 4.22922 3.79587 3.93054 2.46881C3.31776 2.39707 2.79308 2.33205 2.39621 2.28093C2.73283 3.55796 3.28479 6.11492 3.33265 9.30411C5.53592 9.98709 6.83579 11.652 6.83579 13.833C6.83579 16.456 5.62818 18.0349 3.3338 18.4285Z" fill="white"/>
<path fill-rule="evenodd" clip-rule="evenodd" d="M19.6632 23.1668C19.6632 21.879 20.7094 20.8351 21.9999 20.8351C23.2904 20.8351 24.3365 21.879 24.3365 23.1668C24.3365 24.4545 23.2904 25.4984 21.9999 25.4984C20.7094 25.4984 19.6632 24.4545 19.6632 23.1668Z" fill="#303C42"/>
<path fill-rule="evenodd" clip-rule="evenodd" d="M20.8366 23.1669C20.8366 22.5217 21.3574 21.9986 21.9999 21.9986C22.6423 21.9986 23.1632 22.5217 23.1632 23.1669C23.1632 23.8122 22.6423 24.3352 21.9999 24.3352C21.3574 24.3352 20.8366 23.8122 20.8366 23.1669Z" fill="#EF5350"/>
<path fill-rule="evenodd" clip-rule="evenodd" d="M8.92607 20.2489C8.92607 19.9253 8.66384 19.6634 8.33977 19.6634C8.01571 19.6634 7.75349 19.9253 7.75349 20.2489C7.75349 20.6839 7.83878 21.1493 7.99966 21.5935C8.08612 21.8319 8.31114 21.98 8.551 21.98C8.6174 21.98 8.68439 21.9691 8.75025 21.9451C9.05485 21.8348 9.21226 21.4992 9.10233 21.1957C8.98675 20.8771 8.92607 20.5495 8.92607 20.2488V20.2489Z" fill="#303C42"/>
<path fill-rule="evenodd" clip-rule="evenodd" d="M12.3453 8.19541C12.4705 8.19541 12.5968 8.15484 12.7039 8.07152C13.1706 7.70554 13.7664 7.41662 14.4739 7.21277C14.7835 7.12424 14.9623 6.79997 14.8735 6.4899C14.7852 6.17988 14.4614 5.99828 14.1529 6.08905C13.3003 6.33401 12.5712 6.69085 11.9856 7.14991C11.7324 7.3486 11.6874 7.71629 11.8854 7.97095C12.0004 8.11834 12.1717 8.19542 12.3453 8.19542L12.3453 8.19541Z" fill="#303C42"/>
<path fill-rule="evenodd" clip-rule="evenodd" d="M11.8406 23.168C11.2222 23.168 10.6682 22.9969 10.1938 22.6591C9.93074 22.4715 9.56805 22.5354 9.38071 22.7972C9.19452 23.0602 9.25602 23.4247 9.51853 23.6119C10.1938 24.0928 10.9751 24.3364 11.934 24.3364C12.2563 24.3364 12.4705 24.0751 12.4705 23.7522C12.4705 23.4293 12.1629 23.1681 11.8406 23.1681V23.168Z" fill="#303C42"/>
<path fill-rule="evenodd" clip-rule="evenodd" d="M10.6755 12.0893H10.676C10.9986 12.0893 11.2602 11.8216 11.2602 11.4999C11.2602 10.7669 11.3704 10.117 11.588 9.56795C11.7062 9.26836 11.5589 8.92948 11.2585 8.81158C10.9587 8.69312 10.6183 8.83946 10.4995 9.13965C10.2335 9.81345 10.0958 10.5915 10.0941 11.5136H10.0912C10.0918 11.8353 10.3528 12.0894 10.6755 12.0894V12.0893Z" fill="#303C42"/>
<path fill-rule="evenodd" clip-rule="evenodd" d="M12.9681 14.5777C12.3299 14.2709 11.9065 13.8879 11.6356 13.3734C11.4859 13.0889 11.1328 12.9762 10.846 13.1276C10.5597 13.2767 10.4494 13.629 10.5991 13.9141C10.9871 14.6517 11.5956 15.2123 12.4596 15.6272C12.5413 15.6665 12.6281 15.6853 12.7132 15.6853C12.931 15.6853 13.1401 15.564 13.2407 15.3557C13.3812 15.0661 13.2589 14.7178 12.9681 14.5777H12.9681Z" fill="#303C42"/>
<path fill-rule="evenodd" clip-rule="evenodd" d="M16.5308 6.87106C17.1731 6.82681 17.9218 6.78092 18.5449 6.9306C18.5903 6.94193 18.6363 6.94705 18.6818 6.94705C18.9445 6.94705 19.1827 6.76847 19.2468 6.50251C19.3225 6.19122 19.1304 5.87708 18.8177 5.80225C18.0718 5.62197 17.202 5.6599 16.4477 5.71325C16.1271 5.73595 15.8861 6.01317 15.9088 6.33355C15.931 6.65281 16.2033 6.89943 16.5308 6.87107V6.87106Z" fill="#303C42"/>
<path fill-rule="evenodd" clip-rule="evenodd" d="M17.1588 16.3333C16.5236 15.7783 15.6977 15.4937 14.9731 15.2704C14.666 15.1755 14.339 15.3471 14.244 15.6545C14.1488 15.9612 14.3208 16.2867 14.6291 16.3816C15.2386 16.5696 15.9273 16.8037 16.3898 17.2081C16.5004 17.3046 16.6376 17.3524 16.7743 17.3524C16.9361 17.3524 17.0979 17.2853 17.213 17.1541C17.4254 16.9128 17.4009 16.5452 17.1588 16.3333Z" fill="#303C42"/>
<path fill-rule="evenodd" clip-rule="evenodd" d="M17.6156 18.1303C17.2961 18.1548 17.057 18.435 17.0814 18.7562C17.0893 18.861 17.0933 18.9692 17.0933 19.0826C17.0933 19.6863 17.0123 20.2279 16.852 20.6926C16.7466 20.9973 16.9069 21.3293 17.2094 21.4347C17.2729 21.4569 17.3368 21.4672 17.3997 21.4672C17.64 21.4672 17.8648 21.3163 17.9475 21.0754C18.1503 20.487 18.2534 19.8167 18.2534 19.0825C18.2534 18.9385 18.2483 18.8007 18.2381 18.6674C18.2138 18.3467 17.9339 18.1069 17.6156 18.1303Z" fill="#303C42"/>
<path fill-rule="evenodd" clip-rule="evenodd" d="M15.7762 22.1805C15.3148 22.5336 14.717 22.7946 14.0005 22.9568C13.6869 23.0276 13.4903 23.3406 13.5607 23.6559C13.6216 23.9278 13.8619 24.1123 14.1278 24.1123C14.1704 24.1123 14.2131 24.1078 14.2562 24.0981C15.137 23.8988 15.8853 23.5668 16.4807 23.1116C16.7364 22.9162 16.7858 22.549 16.5915 22.2919C16.3978 22.0349 16.0319 21.9852 15.7762 22.1805V22.1805Z" fill="#303C42"/>
<path fill-rule="evenodd" clip-rule="evenodd" d="M20.6134 8.75584C20.6914 9.00459 20.9216 9.16355 21.17 9.16355C21.2275 9.16355 21.2862 9.15505 21.3444 9.13685C21.6515 9.0409 21.823 8.71489 21.7267 8.40825C21.7079 8.34861 21.5296 7.80688 21.0504 7.21403C20.8487 6.96419 20.4817 6.92383 20.2299 7.12658C19.9793 7.32818 19.9399 7.69388 20.1422 7.94431C20.4829 8.36571 20.6128 8.75528 20.6134 8.75583V8.75584Z" fill="#303C42"/>
<path fill-rule="evenodd" clip-rule="evenodd" d="M22.7818 15.0278C22.8854 15.1571 23.0392 15.2363 23.205 15.2454C23.2159 15.2459 23.2267 15.2465 23.2375 15.2465C23.3919 15.2465 23.5399 15.1855 23.6499 15.0756L24.1654 14.5607C24.2828 14.444 24.3443 14.2822 24.3352 14.1165C24.326 13.9507 24.2469 13.7964 24.1176 13.6927L22.1103 12.0871L24.1176 10.4815C24.2469 10.3778 24.3261 10.2235 24.3352 10.0577C24.3442 9.89201 24.2828 9.73022 24.1654 9.61348L23.6499 9.09859C23.5326 8.98124 23.368 8.92487 23.205 8.92888C23.0393 8.93799 22.8855 9.01716 22.7818 9.14643L21.1763 11.1532L19.5708 9.14643C19.4671 9.0171 19.3133 8.93793 19.1475 8.92888C18.988 8.92719 18.8205 8.98124 18.7026 9.09859L18.1871 9.61348C18.0697 9.73022 18.0082 9.89201 18.0174 10.0577C18.0265 10.2235 18.1057 10.3778 18.235 10.4815L20.2422 12.0871L18.235 13.6927C18.1056 13.7964 18.0264 13.9507 18.0174 14.1165C18.0082 14.2822 18.0697 14.444 18.1871 14.5607L18.7026 15.0756C18.8125 15.1855 18.9607 15.2465 19.1151 15.2465C19.1259 15.2465 19.1367 15.246 19.1476 15.2454C19.3133 15.2362 19.4671 15.1571 19.5708 15.0278L21.1763 13.021L22.7818 15.0278Z" fill="#303C42"/>
<path fill-rule="evenodd" clip-rule="evenodd" d="M28.993 1.6726C29.0238 1.47208 28.948 1.26985 28.7931 1.13887C28.6382 1.0073 28.4245 0.96683 28.2331 1.03004C28.1984 1.04141 24.6933 2.16706 16.75 2.16706C9.87362 2.16706 1.74691 1.01812 1.66602 1.00614C1.45979 0.9765 1.2644 1.05569 1.13512 1.21067C1.00524 1.36669 0.96592 1.57805 1.03083 1.76999C1.0422 1.80362 2.16674 5.19129 2.16674 9.7501C2.16674 10.0201 2.35246 10.2548 2.61506 10.3175C3.75496 10.5886 5.66671 11.406 5.66671 13.8333C5.66671 16.0436 4.72336 17.156 2.69879 17.3355C2.39746 17.3623 2.16674 17.6141 2.16674 17.9165C2.16674 24.1638 1.03368 28.2162 1.0223 28.2561C0.96707 28.4498 1.01601 28.6589 1.15163 28.8081C1.2872 28.9568 1.49058 29.0268 1.68767 28.9898C1.75149 28.9785 8.09235 27.8329 11.5 27.8329C16.6605 27.8329 28.2422 28.9847 28.3584 28.9967C28.3778 28.9984 28.3972 28.9995 28.4166 28.9995C28.5772 28.9995 28.7316 28.9334 28.8421 28.8149C28.9663 28.6822 29.0221 28.4994 28.9919 28.3205C28.9805 28.251 27.8332 21.2888 27.8332 14.4166C27.8332 9.27276 28.9816 1.74778 28.993 1.67259L28.993 1.6726Z" fill="url(#paint0_linear_0_645)"/>
<defs>
<linearGradient id="paint0_linear_0_645" x1="-1.315" y1="36.84" x2="0.244998" y2="36.11" gradientUnits="userSpaceOnUse">
<stop stop-color="white" stop-opacity="0.2"/>
<stop offset="1" stop-color="white" stop-opacity="0.01"/>
</linearGradient>
</defs>
</svg>
