<svg width="50" height="50" viewBox="0 0 50 50" fill="none" xmlns="http://www.w3.org/2000/svg">
<path fill-rule="evenodd" clip-rule="evenodd" d="M4 50C1.79086 50 0 48.2091 0 46V4C0 1.79086 1.79086 0 4 0H46C48.2091 0 50 1.79086 50 4V46C50 48.2091 48.2091 50 46 50H4Z" fill="#F6F6F6"/>
<path fill-rule="evenodd" clip-rule="evenodd" d="M47 25C47 12.8694 37.1315 3 25 3C12.8685 3 3 12.8694 3 25C3 30.9922 5.60468 35.4399 10.7035 38.2554C11.7164 45.3576 14.8065 47 25 47C34.9088 47 38.1111 45.4633 39.2128 38.8542C44.3666 36.1889 47 31.5424 47 25Z" fill="#303C42"/>
<path fill-rule="evenodd" clip-rule="evenodd" d="M44.9957 27.5215C42.7894 25.4528 41.5 22.5513 41.5 19.4973C41.5 17.9353 41.8364 16.3988 42.479 14.9808C44.1769 17.9366 45.1633 21.3518 45.1633 24.9996C45.1633 25.8869 45.0971 26.7187 44.9958 27.5215H44.9957Z" fill="#F2F2F2"/>
<path fill-rule="evenodd" clip-rule="evenodd" d="M15.8366 15.8315C15.8366 10.7679 19.9392 6.66311 25 6.66311C30.0608 6.66311 34.1634 10.7679 34.1634 15.8315C34.1634 20.8951 30.0608 24.9999 25 24.9999C19.9392 24.9999 15.8366 20.8951 15.8366 15.8315Z" fill="#F2F2F2"/>
<path fill-rule="evenodd" clip-rule="evenodd" d="M7.52103 14.9808C8.16361 16.3988 8.5 17.9353 8.5 19.4973C8.5 22.528 7.22549 25.4154 5.04345 27.4816C4.92084 26.6866 4.83662 25.8683 4.83662 24.9997C4.83662 21.3518 5.82306 17.9367 7.52103 14.9808Z" fill="#F2F2F2"/>
<path fill-rule="evenodd" clip-rule="evenodd" d="M25 45.1634C14.27 45.1634 12.8882 43.4205 12.2976 36.0334C14.9358 33.176 19.7576 31.4134 25 31.4134C30.2424 31.4134 35.0642 33.176 37.7024 36.0334C37.1118 43.4205 35.73 45.1634 25 45.1634Z" fill="#FEE4D0"/>
<path fill-rule="evenodd" clip-rule="evenodd" d="M39.4895 36.6005C39.5146 36.3296 39.5438 36.0727 39.5651 35.7881C39.5829 35.5473 39.5042 35.3092 39.3484 35.1248C36.4318 31.707 30.9334 29.5836 24.9999 29.5836C19.0665 29.5836 13.568 31.707 10.6515 35.1248C10.4957 35.3092 10.4169 35.5473 10.4348 35.7881C10.4397 35.8534 10.4471 35.91 10.4522 35.9745C7.99076 34.3307 6.35032 32.1531 5.50845 29.4851C8.53167 27.0561 10.3327 23.3837 10.3327 19.5003C10.3327 17.2997 9.73604 15.1554 8.6543 13.2346C12.1134 8.44314 17.6137 5.23828 23.8763 4.89075C18.3362 5.45527 13.9995 10.1472 13.9995 15.8337C13.9995 21.8994 18.934 26.8336 24.9999 26.8336C31.0659 26.8336 36.0003 21.8994 36.0003 15.8337C36.0003 10.1471 31.6637 5.45528 26.1235 4.89067C32.3861 5.2382 37.8864 8.44306 41.3455 13.2345C40.2638 15.1554 39.6671 17.2996 39.6671 19.5003C39.6671 23.4364 41.5103 27.1458 44.6013 29.5737C43.797 32.6118 42.1085 34.941 39.4895 36.6005L39.4895 36.6005Z" fill="#D32F2F"/>
<path fill-rule="evenodd" clip-rule="evenodd" d="M44.9957 27.5215C42.7894 25.4528 41.5 22.5513 41.5 19.4973C41.5 17.9353 41.8364 16.3988 42.479 14.9808C44.1769 17.9366 45.1633 21.3517 45.1633 24.9996C45.1633 25.8869 45.0971 26.7187 44.9958 27.5215H44.9957Z" fill="#F2F2F2"/>
<path fill-rule="evenodd" clip-rule="evenodd" d="M39.4895 36.6005C39.5146 36.3296 39.5438 36.0727 39.5651 35.7881C39.5829 35.5473 39.5042 35.3092 39.3484 35.1248C36.4318 31.707 30.9334 29.5836 24.9999 29.5836C19.0665 29.5836 13.568 31.707 10.6515 35.1248C10.4957 35.3092 10.4169 35.5473 10.4348 35.7881C10.4397 35.8534 10.4471 35.91 10.4522 35.9745C7.99076 34.3307 6.35032 32.1531 5.50845 29.4851C8.53167 27.0561 10.3327 23.3837 10.3327 19.5003C10.3327 17.2997 9.73604 15.1554 8.6543 13.2346C12.1134 8.44314 17.6137 5.23828 23.8763 4.89075C18.3362 5.45527 13.9995 10.1472 13.9995 15.8337C13.9995 21.8994 18.934 26.8336 24.9999 26.8336C31.0659 26.8336 36.0003 21.8994 36.0003 15.8337C36.0003 10.1471 31.6637 5.45528 26.1235 4.89067C32.3861 5.2382 37.8864 8.44306 41.3455 13.2345C40.2638 15.1554 39.6671 17.2996 39.6671 19.5003C39.6671 23.4364 41.5103 27.1458 44.6013 29.5737C43.797 32.6118 42.1085 34.941 39.4895 36.6005L39.4895 36.6005Z" fill="#D32F2F"/>
<path fill-rule="evenodd" clip-rule="evenodd" d="M25 45.1634C35.73 45.1634 37.1118 43.4205 37.7024 36.0334C35.0642 33.176 30.2424 31.4134 25 31.4134C19.7576 31.4134 14.9358 33.176 12.2976 36.0334L21.3302 45.0688C22.414 45.1339 23.6285 45.1635 25 45.1635L25 45.1634Z" fill="url(#paint0_linear_0_236)"/>
<path fill-rule="evenodd" clip-rule="evenodd" d="M19.9616 34.1632C19.2472 34.1632 18.5866 34.6075 18.5866 37.8316C18.5866 41.0558 19.2473 41.5 19.9616 41.5C20.6759 41.5 21.3366 41.0558 21.3366 37.8316C21.3366 34.6075 20.676 34.1632 19.9616 34.1632Z" fill="#303C42"/>
<path fill-rule="evenodd" clip-rule="evenodd" d="M30.0384 41.4999C30.7528 41.4999 31.4134 41.0557 31.4134 37.8315C31.4134 34.6074 30.7527 34.1631 30.0384 34.1631C29.3241 34.1631 28.6634 34.6074 28.6634 37.8315C28.6634 41.0557 29.324 41.4999 30.0384 41.4999Z" fill="#303C42"/>
<path fill-rule="evenodd" clip-rule="evenodd" d="M47 25C47 12.8694 37.1315 3 25 3C12.8685 3 3 12.8694 3 25C3 30.9922 5.60468 35.4399 10.7035 38.2554C11.7164 45.3576 14.8065 47 25 47C34.9088 47 38.1111 45.4633 39.2128 38.8542C44.3666 36.1889 47 31.5424 47 25Z" fill="url(#paint1_linear_0_236)"/>
<path opacity="0.1" fill-rule="evenodd" clip-rule="evenodd" d="M5.04171 27.4816C5.37264 27.1684 5.67521 26.8308 5.96316 26.4822C5.59381 26.35 5.24113 26.2015 4.8827 26.0587C4.91898 26.543 4.9702 27.0184 5.04171 27.4816Z" fill="black"/>
<path opacity="0.1" fill-rule="evenodd" clip-rule="evenodd" d="M41.5939 20.839C41.9117 23.3899 43.1167 25.759 44.9959 27.5216C45.0971 26.7189 45.1634 25.8874 45.1634 25.0003C45.1634 22.5686 44.6913 20.256 43.8961 18.0983C43.2556 19.0601 42.481 19.9752 41.5939 20.839H41.5939Z" fill="black"/>
<path opacity="0.1" fill-rule="evenodd" clip-rule="evenodd" d="M7.80352 27.0745C7.14607 27.9635 6.38584 28.7824 5.50839 29.4872C6.35026 32.1545 7.9907 34.3314 10.4521 35.9747C10.447 35.9102 10.4397 35.8536 10.4348 35.7883C10.4169 35.5476 10.4956 35.3095 10.6514 35.1252C13.5681 31.7084 19.0665 29.5857 24.9999 29.5857C30.9333 29.5857 36.4318 31.7084 39.3483 35.1252C39.5042 35.3095 39.5829 35.5476 39.565 35.7883C39.5438 36.0728 39.5145 36.3297 39.4895 36.6005C42.1084 34.9415 43.7969 32.613 44.6012 29.5758C42.2455 27.7261 40.6216 25.1304 39.979 22.2592C35.0156 26.1677 27.4752 28.6693 19.0413 28.6693C15.029 28.6694 11.2312 28.0884 7.8035 27.0745H7.80352Z" fill="black"/>
<defs>
<linearGradient id="paint0_linear_0_236" x1="0.366093" y1="57.5021" x2="0.613594" y2="56.6567" gradientUnits="userSpaceOnUse">
<stop stop-opacity="0.1"/>
<stop offset="1" stop-opacity="0.01"/>
</linearGradient>
<linearGradient id="paint1_linear_0_236" x1="-0.5" y1="58.87" x2="1.36" y2="58.01" gradientUnits="userSpaceOnUse">
<stop stop-color="white" stop-opacity="0.2"/>
<stop offset="1" stop-color="white" stop-opacity="0.01"/>
</linearGradient>
</defs>
</svg>
