<svg width="32" height="32" viewBox="0 0 32 32" fill="none" xmlns="http://www.w3.org/2000/svg">
<path opacity="0.01" d="M0.5 31.5V0.5H31.5V31.5H0.5Z" fill="white" stroke="#707070"/>
<path fill-rule="evenodd" clip-rule="evenodd" d="M30.6357 15.3377C30.2936 7.78323 24.2229 1.71313 16.6676 1.37104C16.7143 1.34409 15.3341 1.33674 15.3341 1.3711C7.77881 1.71318 1.70806 7.78322 1.36595 15.3377C1.34899 15.3377 1.36306 16.6821 1.36601 16.6711C1.70811 24.2256 7.7788 30.2957 15.3341 30.6377C15.3365 30.6391 16.6942 30.6643 16.6677 30.6377C24.223 30.2957 30.2937 24.2256 30.6358 16.6711L30.6357 15.3377Z" fill="#303C42"/>
<path fill-rule="evenodd" clip-rule="evenodd" d="M29.2989 16.6667C28.9592 23.486 23.485 28.9596 16.6665 29.2993C16.6757 29.265 15.3783 29.3036 15.3332 29.2993C8.51476 28.9596 3.0406 23.4859 2.70087 16.6667C2.70894 16.6814 2.72414 15.4202 2.70087 15.3334C3.04061 8.51414 8.51476 3.04054 15.3332 2.70087C15.3449 2.74438 16.6807 2.71498 16.6665 2.70087C23.485 3.04054 28.9592 8.51421 29.2989 15.3334V16.6667Z" fill="#BBDEFB"/>
<path fill-rule="evenodd" clip-rule="evenodd" d="M9.99996 12.6683C9.99996 10.8283 11.4916 9.33671 13.3316 9.33671C15.1716 9.33671 16.6632 10.8283 16.6632 12.6683C16.6632 14.5083 15.1716 15.9999 13.3316 15.9999C11.4916 15.9999 9.99996 14.5083 9.99996 12.6683Z" fill="#303C42"/>
<path fill-rule="evenodd" clip-rule="evenodd" d="M11.3366 12.6633C11.3366 11.5587 12.2321 10.6633 13.3366 10.6633C14.4412 10.6633 15.3366 11.5587 15.3366 12.6633C15.3366 13.7678 14.4412 14.6632 13.3366 14.6632C12.2321 14.6632 11.3366 13.7678 11.3366 12.6633Z" fill="#1E88E5"/>
<path opacity="0.1" fill-rule="evenodd" clip-rule="evenodd" d="M14.3717 10.9684C14.5569 11.2709 14.6695 11.6225 14.6695 12.002C14.6695 13.1026 13.7718 13.9979 12.6683 13.9979C12.2877 13.9979 11.9351 13.8856 11.6319 13.7009C11.9837 14.2753 12.6124 14.6632 13.3353 14.6632C14.4389 14.6632 15.3366 13.7679 15.3366 12.6673C15.3366 11.9463 14.9477 11.3193 14.3717 10.9684Z" fill="black"/>
<path fill-rule="evenodd" clip-rule="evenodd" d="M16.6632 11.9999C16.6632 10.529 17.8578 9.33653 19.3315 9.33653C20.8052 9.33653 21.9999 10.529 21.9999 11.9999C21.9999 13.4708 20.8052 14.6633 19.3315 14.6633C17.8578 14.6633 16.6632 13.4708 16.6632 11.9999Z" fill="#303C42"/>
<path fill-rule="evenodd" clip-rule="evenodd" d="M17.9999 11.9999C17.9999 11.2617 18.5961 10.6633 19.3316 10.6633C20.067 10.6633 20.6632 11.2617 20.6632 11.9999C20.6632 12.7381 20.067 13.3365 19.3316 13.3365C18.5961 13.3365 17.9999 12.7381 17.9999 11.9999Z" fill="#1E88E5"/>
<path opacity="0.1" fill-rule="evenodd" clip-rule="evenodd" d="M19.876 10.788C19.9515 10.9554 19.9981 11.1379 19.9981 11.3331C19.9981 12.0693 19.4011 12.6687 18.6678 12.6687C18.4733 12.6687 18.2915 12.6218 18.1248 12.5461C18.3336 13.0097 18.7942 13.3365 19.333 13.3365C20.0663 13.3365 20.6633 12.7371 20.6633 12.0009C20.6633 11.4599 20.3378 10.9976 19.876 10.7879L19.876 10.788Z" fill="black"/>
<path fill-rule="evenodd" clip-rule="evenodd" d="M8.77622 18.043C9.84024 17.416 11.4945 16.6687 13.3343 16.6687C13.8074 16.6687 14.2667 16.7206 14.7084 16.8046C14.9 16.6068 15.1087 16.4346 15.3511 16.3181C16.2823 15.8705 17.7291 15.3365 19.3319 15.3365C20.9348 15.3365 22.3816 15.8705 23.3128 16.3181C24.1458 16.7187 24.6632 17.5182 24.6632 18.404V18.7084C24.6632 19.42 24.0651 19.999 23.3304 19.999H19.246C19.295 20.2255 19.332 20.4569 19.332 20.6963V21.1229C19.332 21.9724 18.6916 22.6632 17.9042 22.6632H8.76455C7.9771 22.6632 7.33672 21.9724 7.33672 21.1229V20.6963C7.33666 19.5833 7.88789 18.5667 8.77622 18.043V18.043Z" fill="#303C42"/>
<path fill-rule="evenodd" clip-rule="evenodd" d="M23.3365 18.7064V18.4015C23.3365 18.0314 23.1079 17.6913 22.7405 17.5147C21.9334 17.1264 20.6873 16.6631 19.3344 16.6631C18.2098 16.6631 17.1752 16.9832 16.389 17.3142C16.957 17.5436 17.4799 17.7959 17.8935 18.0398C18.1681 18.2018 18.3967 18.4229 18.6006 18.6675L23.3365 18.7064Z" fill="#1E88E5"/>
<path fill-rule="evenodd" clip-rule="evenodd" d="M8.66327 21.1278C8.66327 21.2667 8.74205 21.3364 8.75837 21.3364H17.9048C17.9211 21.3364 17.9999 21.2666 17.9999 21.1278V20.7004C17.9999 20.065 17.6919 19.4732 17.2158 19.1917C16.2942 18.6482 14.8718 17.9998 13.3316 17.9998C11.7914 17.9998 10.369 18.6483 9.44741 19.1917C8.9713 19.4732 8.66326 20.065 8.66326 20.7004L8.66327 21.1278Z" fill="#1E88E5"/>
<path opacity="0.2" fill-rule="evenodd" clip-rule="evenodd" d="M22.7402 17.5184C22.1622 17.2413 21.3542 16.932 20.4479 16.7751C19.5208 16.9848 18.7249 17.5181 18.1656 18.2459C18.3215 18.3733 18.4679 18.5121 18.5981 18.6678L23.3365 18.7065V18.4025C23.3365 18.0336 23.1077 17.6945 22.7402 17.5184Z" fill="white"/>
<path opacity="0.2" fill-rule="evenodd" clip-rule="evenodd" d="M17.4035 21.3365H17.9053C17.9215 21.3365 17.9999 21.2666 17.9999 21.1275V20.6989C17.9999 20.2215 17.8278 19.7688 17.5423 19.453C17.4203 19.8385 17.3366 20.2412 17.3366 20.6675C17.3366 20.8967 17.3669 21.1178 17.4035 21.3365L17.4035 21.3365Z" fill="white"/>
<path opacity="0.2" fill-rule="evenodd" clip-rule="evenodd" d="M24.6695 18.4609V18.7085C24.6695 19.4203 24.0708 19.9994 23.3353 19.9994H19.2464C19.2954 20.2261 19.3325 20.4574 19.3325 20.6969V21.1237C19.3325 21.9734 18.6914 22.6645 17.9031 22.6645H17.8862C18.5797 23.8543 19.856 24.6632 21.3339 24.6632C23.5446 24.6632 25.3367 22.8735 25.3367 20.6657C25.3366 19.8501 25.0894 19.0932 24.6695 18.4609Z" fill="white"/>
</svg>
